<?xml version="1.0" encoding="utf-8"?>
<!-- Generator: Adobe Illustrator 24.0.1, SVG Export Plug-In . SVG Version: 6.00 Build 0)  -->
<svg version="1.1" id="Layer_1" xmlns="http://www.w3.org/2000/svg" xmlns:xlink="http://www.w3.org/1999/xlink" x="0px" y="0px"
	 viewBox="0 0 353 399" style="enable-background:new 0 0 353 399;" xml:space="preserve">
<style type="text/css">
	.st0{fill:#008CBA;}
</style>
<g>
	<path class="st0" d="M234.2,79.3c4.1,0,7.9-0.4,11.6,0.1c11.2,1.4,19.8,10.6,19.9,21.8c0.2,29.6,0.7,59.2-0.2,88.8
		c-1.3,39.1-35.8,76.1-74.5,82.3c-51.3,8.1-97.9-31.1-102.6-81c-0.2-1.9-0.2-3.7-0.2-5.6c0-20.1,0-40.2,0-60.3c0-6,2.8-8.6,8.8-8.5
		c7.8,0.1,14.9,2.5,21.4,6.8c0.9,0.6,1.9,1.2,2.8,1.8c0.1,0,0.2-0.1,0.8-0.2c0-3.1,0-6.3,0-9.5c0-10.8,0-21.5,0-32.2
		c0-17.9,13.5-28.5,30.9-24.4c0.5,0.1,1,0.1,1.6,0.2c3.8-11.8,11.4-19.1,24.3-18.9c12.3,0.2,19.6,7.3,23.1,18.7
		C223.3,57.4,228,60.4,234.2,79.3z M103.4,132.9c-0.1,1.2-0.2,2-0.2,2.8c0,15.6,0,31.2,0,46.9c0,10.8,2.4,21,6.8,30.9
		c15.7,35.3,54,53.1,89.1,41.5c28.2-9.3,49.9-36.6,51.3-67.9c1.3-28.3,0.4-56.7,0.5-85.1c0-0.3,0-0.5-0.1-0.8
		c-0.5-3.4-2.5-5.7-5.7-6.7c-5.8-1.8-10.9,2.1-10.9,8.6c-0.1,17,0,34-0.1,51c0,5.5-2.9,8.8-7.5,8.8c-4.7,0-7.4-3.2-7.4-8.8
		c0-12.4,0-24.7,0-37.1c0-11.5,0-23,0-34.5c0-5.1-2.1-8.1-6.1-9.1c-6.1-1.6-10.8,2.6-10.8,9.8c0,20.1,0,40.2,0,60.4
		c0,3.4,0.1,6.8-0.1,10.1c-0.2,4-3.1,6.8-6.9,7c-3.9,0.2-7-2.1-7.8-6.1c-0.3-1.4-0.2-3-0.2-4.5c0-28.2,0-56.5,0-84.7
		c0-6.8-4-10.6-10.2-9.9c-4.8,0.5-7.8,4.4-7.9,10.2c0,14.8,0,29.5,0,44.2c0,14.9,0,29.7,0,44.6c0,4.6-2.2,7.6-5.9,8.3
		c-5,0.9-8.9-2.4-9-7.9c-0.1-10.3,0-20.5,0-30.7c0-14,0-28,0-42c0-5.7-3.1-8.9-8.3-9.1c-5.4-0.1-8.9,3.9-8.9,10.2
		c0,29.7,0,59.5,0,89.2c0,0.9,0.1,1.7,0.2,2.6c1.3,0.5,2.4,0.9,3.6,1.3c12.9,5.2,22.9,13.6,29.1,26.2c2.1,4.3,0.8,8.7-3.1,10.6
		c-3.8,1.9-7.9,0.6-10.1-3.6c-5.9-11.6-15.5-18.2-28-21.1c-4.7-1.1-6.6-3.5-6.6-8.5c-0.1-5.6,0.6-11.3-0.2-16.9
		c-0.9-6.4-2.4-12.7-4.6-18.8C115.1,138.2,109.7,135.1,103.4,132.9z"/>
	<path class="st0" d="M157.7,355.5c-17.7,0-32.1-14.5-32-32.3c0.1-17.5,14.4-31.9,32-31.9c17.7,0,32.2,14.6,32,32.3
		C189.6,341.3,175.3,355.5,157.7,355.5z M157.6,340.5c9.4,0.1,17.2-7.6,17.2-17.1c0-9.4-7.8-17.2-17.1-17.1c-9.3,0-16.9,7.6-17,16.9
		C140.6,332.7,148.2,340.4,157.6,340.5z"/>
	<path class="st0" d="M244.9,323.2c0-7.4,0-14.7,0-22.1c0-6.1,2.8-9,8.9-9c4-0.1,8-0.1,12,0c12.4,0.3,21.3,6.9,25,18.8
		c3.1,9.9,2.8,19.8-1.9,29.1c-4.8,9.5-12.6,14.5-23.3,14.7c-4,0.1-8,0.1-12,0c-5.2,0-8.4-3.2-8.5-8.4c-0.1-7.7,0-15.5,0-23.2
		C244.9,323.2,244.9,323.2,244.9,323.2z M260.1,307.2c0,11.1,0,21.7,0,32.4c6.1,0.6,11.8,0.6,14.9-5.5c3.7-7.4,3.8-15-0.4-22.2
		C271.5,306.2,265.8,306.9,260.1,307.2z"/>
	<path class="st0" d="M97.9,330.1c-6.5,0-12.5,0-19.1,0c0,2.6,0,5.2,0,7.7c0,3.6,0.1,7.3-0.1,10.9c-0.2,3.8-3.1,6.5-6.8,6.7
		c-3.6,0.3-6.8-2.1-7.7-5.8c-0.3-1.1-0.3-2.2-0.3-3.3c0-15.4,0-30.7,0-46.1c0-1.1,0.1-2.3,0.4-3.3c0.9-3.5,3.9-5.7,7.4-5.6
		c3.7,0.2,6.7,2.8,6.9,6.6c0.3,4.2,0.1,8.5,0.2,12.7c0,1.3,0,2.7,0,4.2c6.5,0,12.6,0,19.1,0c0-4.9,0-9.8,0-14.6
		c0-5.5,2.9-8.9,7.4-8.9s7.6,3.4,7.6,8.8c0,15.5,0,31,0,46.5c0,5.4-3.1,8.9-7.6,8.8c-4.6,0-7.3-3.4-7.4-8.9
		C97.9,341.2,97.9,335.9,97.9,330.1z"/>
	<path class="st0" d="M218,340.5c3.1,0,6.1-0.1,9.1,0c4.4,0.1,7.4,3.2,7.6,7.2c0.1,4.2-3,7.6-7.5,7.7c-5.2,0.2-10.5,0.2-15.7,0
		c-6.7-0.3-8.9-2.6-8.9-9.3c0-15.4,0-30.7,0-46.1c0-3.5,1-6.4,4.4-8c4.8-2.3,10.1,0.9,10.5,6.5c0.3,4.1,0.1,8.2,0.1,12.4
		c0,9.5,0.1,19,0.1,28.5C217.6,339.6,217.8,339.8,218,340.5z"/>
</g>
</svg>
