<?xml version="1.0" encoding="utf-8"?>
<!-- Generator: Adobe Illustrator 24.0.1, SVG Export Plug-In . SVG Version: 6.00 Build 0)  -->
<svg version="1.1" id="Layer_1" xmlns="http://www.w3.org/2000/svg" xmlns:xlink="http://www.w3.org/1999/xlink" x="0px" y="0px"
	 viewBox="0 0 280.9 326.5" style="enable-background:new 0 0 280.9 326.5;" xml:space="preserve">
<style type="text/css">
	.st0{fill:#008CBA;}
</style>
<g>
	<path class="st0" d="M138.8,282.3c1.5,7.9,2.9,15.2,4.4,22.5c1.2,5.9-0.3,9.9-4.6,12.3c-4.3,2.4-8.9,1.5-13.1-2.8
		c-16.9-16.9-33.7-33.8-50.6-50.6c-5.8-5.8-5.8-11,0-16.9c16.8-16.9,33.7-33.8,50.6-50.6c4.4-4.4,8.6-5.2,13.1-2.7
		c4.3,2.4,5.7,6.3,4.6,12.3c-1.4,7.3-2.8,14.7-4.3,22.5c1.5,0,2.7,0,4,0c19.5,0,38.9,0,58.4,0c11.9,0,19.4-7.4,19.4-19.4
		c0-22.3-0.1-44.5,0.1-66.8c0.1-13.6,9.5-24.9,22.3-27.3c15.8-2.9,31.3,9,31.5,25.1c0.3,31.6,0.6,63.3-0.1,94.9
		c-0.5,25.8-22.9,47.1-48.8,47.4c-27.2,0.3-54.4,0.1-81.6,0.1C142.4,282.3,140.9,282.3,138.8,282.3z"/>
	<path class="st0" d="M146.6,42.1c-1.6-8-3-15.4-4.4-22.7c-1.1-5.9,0.4-9.9,4.7-12.3c4.2-2.3,8.8-1.4,12.9,2.7
		c17,17,33.9,33.9,50.8,50.9c5.6,5.7,5.7,11,0.1,16.6c-16.9,17-33.9,34-50.8,50.9c-4.2,4.2-8.4,5.1-12.8,2.7
		c-4.4-2.3-6-6.3-4.8-12.2c1.4-7.3,2.9-14.7,4.4-22.5c-1.5-0.1-2.8-0.2-4.1-0.2c-19.3,0-38.7,0-58,0c-12.2,0-19.6,7.3-19.6,19.5
		c0,22.1,0.1,44.3,0,66.4c-0.1,13.3-9.2,24.9-21.3,27.4c-16.8,3.5-32.5-8.9-32.5-26.3c-0.1-30.6-0.1-61.3,0-91.9
		c0-3.1,0.4-6.3,1.1-9.3c5.2-23.5,25-39.7,49.1-39.9c26.8-0.2,53.7,0,80.5-0.1C143.1,42.1,144.6,42.1,146.6,42.1z"/>
</g>
</svg>
