<svg width="123" height="102" viewBox="0 0 123 102" fill="none" xmlns="http://www.w3.org/2000/svg">
<path d="M4.42991 63.6294C1.56091 60.8744 0.0779147 57.2094 0.00291465 53.5194C-0.0710853 49.8304 1.26391 46.1074 4.01791 43.2384C6.76991 40.3714 10.4349 38.8874 14.1239 38.8134C17.8149 38.7374 21.5359 40.0684 24.4069 42.8254L49.1939 66.6764L98.5429 3.98842L100.311 5.33742L98.5409 3.98242C98.6819 3.79942 98.8419 3.64342 99.0199 3.51642C101.956 0.973418 105.641 -0.174582 109.243 0.0214178V0.0174178L109.419 0.0334178C113.042 0.273418 116.581 1.88342 119.194 4.79942C121.852 7.76442 123.057 11.5304 122.856 15.2114H122.86L122.844 15.3874C122.608 18.9454 121.053 22.4224 118.235 25.0194L59.0109 97.1094L59.0149 97.1134C58.9039 97.2544 58.7789 97.3754 58.6429 97.4814C55.8699 99.9164 52.3679 101.11 48.8859 101.05C45.3749 100.989 41.8709 99.6544 39.1449 97.0344L4.42991 63.6294Z" fill="#BE3D5D"/>
</svg>
